<?xml version="1.0" encoding="UTF-8" standalone="no"?>
<svg
   xmlns:dc="http://purl.org/dc/elements/1.1/"
   xmlns:cc="http://creativecommons.org/ns#"
   xmlns:rdf="http://www.w3.org/1999/02/22-rdf-syntax-ns#"
   xmlns:svg="http://www.w3.org/2000/svg"
   xmlns="http://www.w3.org/2000/svg"
   xmlns:xlink="http://www.w3.org/1999/xlink"
   xmlns:sodipodi="http://sodipodi.sourceforge.net/DTD/sodipodi-0.dtd"
   xmlns:inkscape="http://www.inkscape.org/namespaces/inkscape"
   inkscape:export-ydpi="9600"
   inkscape:export-xdpi="9600"
   inkscape:export-filename="/home/victor/Documents/Apps/theSlate/readme/splash.png"
   sodipodi:docname="splash.svg"
   inkscape:version="1.0 (4035a4fb49, 2020-05-01)"
   id="svg843"
   version="1.1"
   viewBox="0 0 5.2916665 2.6458334"
   height="10"
   width="20">
  <defs
     id="defs837">
    <linearGradient
       gradientUnits="userSpaceOnUse"
       y2="294.35416"
       x2="5.2916665"
       y1="296.99997"
       x1="0"
       id="linearGradient2317"
       xlink:href="#linearGradient9085"
       inkscape:collect="always" />
    <linearGradient
       inkscape:collect="always"
       id="linearGradient9085">
      <stop
         style="stop-color:#6464ff;stop-opacity:1"
         offset="0"
         id="stop9081" />
      <stop
         style="stop-color:#c8c8ff;stop-opacity:1"
         offset="1"
         id="stop9083" />
    </linearGradient>
    <linearGradient
       gradientUnits="userSpaceOnUse"
       y2="294.35419"
       x2="5.2916665"
       y1="296.99997"
       x1="0"
       id="linearGradient2317-3-2"
       xlink:href="#linearGradient9085"
       inkscape:collect="always"
       gradientTransform="matrix(0.10000001,0,0,0.80001203,0.26458333,58.867237)" />
    <linearGradient
       gradientUnits="userSpaceOnUse"
       y2="294.35416"
       x2="0.52916664"
       y1="296.47083"
       x1="0.52916664"
       id="linearGradient2515"
       xlink:href="#linearGradient9209"
       inkscape:collect="always" />
    <linearGradient
       inkscape:collect="always"
       id="linearGradient9209">
      <stop
         style="stop-color:#0064d9;stop-opacity:1"
         offset="0"
         id="stop9205" />
      <stop
         style="stop-color:#22c8ff;stop-opacity:1"
         offset="1"
         id="stop9207" />
    </linearGradient>
    <linearGradient
       gradientUnits="userSpaceOnUse"
       y2="294.35416"
       x2="0.52916664"
       y1="296.47083"
       x1="0.52916664"
       id="linearGradient2515-7"
       xlink:href="#linearGradient9085-6"
       inkscape:collect="always"
       gradientTransform="translate(0)" />
    <linearGradient
       gradientTransform="matrix(0.26458333,0,0,0.26458333,74.082584,280.88922)"
       gradientUnits="userSpaceOnUse"
       y2="-3.5959179"
       x2="27.313709"
       y1="35.595917"
       x1="4.6862917"
       id="linearGradient822-63-3"
       xlink:href="#linearGradient9085-6"
       inkscape:collect="always" />
    <linearGradient
       inkscape:collect="always"
       id="linearGradient9085-6">
      <stop
         style="stop-color:#64ffff;stop-opacity:1"
         offset="0"
         id="stop9081-7" />
      <stop
         style="stop-color:#c8ffff;stop-opacity:1"
         offset="1"
         id="stop9083-5" />
    </linearGradient>
  </defs>
  <sodipodi:namedview
     inkscape:document-rotation="0"
     inkscape:window-maximized="1"
     inkscape:window-y="0"
     inkscape:window-x="2560"
     inkscape:window-height="1044"
     inkscape:window-width="1920"
     showguides="true"
     units="px"
     showgrid="true"
     inkscape:current-layer="layer1"
     inkscape:document-units="mm"
     inkscape:cy="3.330807"
     inkscape:cx="5.9411401"
     inkscape:zoom="45.254834"
     inkscape:pageshadow="2"
     inkscape:pageopacity="0.0"
     borderopacity="1.0"
     bordercolor="#666666"
     pagecolor="#ffffff"
     id="base">
    <inkscape:grid
       enabled="true"
       id="grid1391"
       type="xygrid" />
    <inkscape:grid
       enabled="true"
       empspacing="1"
       dotted="true"
       originx="0.13229167"
       originy="0.13229167"
       id="grid1393"
       type="xygrid" />
  </sodipodi:namedview>
  <metadata
     id="metadata840">
    <rdf:RDF>
      <cc:Work
         rdf:about="">
        <dc:format>image/svg+xml</dc:format>
        <dc:type
           rdf:resource="http://purl.org/dc/dcmitype/StillImage" />
        <dc:title></dc:title>
      </cc:Work>
    </rdf:RDF>
  </metadata>
  <g
     transform="translate(0,-294.35415)"
     id="layer1"
     inkscape:groupmode="layer"
     inkscape:label="Layer 1">
    <rect
       y="294.35416"
       x="0"
       height="2.6458333"
       width="5.2916665"
       id="rect2664-1"
       style="opacity:1;fill:#ffffff;fill-opacity:1;stroke:none;stroke-width:0.26499999;stroke-linecap:round;stroke-linejoin:round;stroke-miterlimit:4;stroke-dasharray:none;stroke-dashoffset:0;stroke-opacity:1;paint-order:normal" />
    <path
       sodipodi:nodetypes="cccccc"
       inkscape:connector-curvature="0"
       id="path2507-4"
       d="m 0.26458333,294.35415 v 2.11667 l 0.26458334,-0.26459 0.26458333,0.26459 v -2.11667 z"
       style="fill:url(#linearGradient2515-7);fill-opacity:1.0;stroke:none;stroke-width:0.26458332px;stroke-linecap:butt;stroke-linejoin:miter;stroke-opacity:1" />
    <g
       style="stroke-width:12.8002"
       transform="matrix(0.078125,0,0,0.07812252,1.9058896,272.44298)"
       id="g1694">
      <circle
         style="opacity:1;fill:url(#linearGradient822-63-3);fill-opacity:1;stroke:none;stroke-width:3.38672;stroke-linecap:round;stroke-linejoin:round;stroke-miterlimit:4;stroke-dasharray:none;stroke-dashoffset:0;stroke-opacity:1;paint-order:normal"
         id="path814-5"
         cx="78.315849"
         cy="285.12241"
         inkscape:export-filename="/home/victor/newcontemporary.png"
         inkscape:export-xdpi="2165.5593"
         inkscape:export-ydpi="2165.5593"
         r="4.2333331"
         transform="rotate(15)" />
      <path
         style="opacity:1;fill:#000000;fill-opacity:1;stroke:none;stroke-width:4.61264;stroke-linecap:round;stroke-linejoin:round;stroke-miterlimit:4;stroke-dasharray:none;stroke-dashoffset:0;stroke-opacity:1;paint-order:normal"
         d="m 2.1260044,294.65474 c -0.5663319,-0.15174 -1.1444399,0.18203 -1.296167,0.74835 l -1.0594401,3.95383 a 4.2333333,4.2333333 0 0 0 0.9860261,0.40916 4.2333333,4.2333333 0 0 0 5.1847621,-2.99339 4.2333333,4.2333333 0 0 0 0.1406316,-1.05798 z"
         id="rect824-9"
         inkscape:connector-curvature="0"
         inkscape:export-filename="/home/victor/newcontemporary.png"
         inkscape:export-xdpi="2165.5593"
         inkscape:export-ydpi="2165.5593" />
      <path
         id="path1706"
         d="m 1.8359375,295.54492 a 0.1322915,0.1322915 0 0 0 -0.1152344,0.11719 l -0.3007812,2.6582 a 0.1322915,0.1322915 0 0 0 0.1152343,0.14649 0.1322915,0.1322915 0 0 0 0.1464844,-0.11719 l 0.3027344,-2.6582 a 0.1322915,0.1322915 0 0 0 -0.1171875,-0.14649 0.1322915,0.1322915 0 0 0 -0.03125,0 z"
         style="color:#000000;font-style:normal;font-variant:normal;font-weight:normal;font-stretch:normal;font-size:medium;line-height:normal;font-family:sans-serif;font-variant-ligatures:normal;font-variant-position:normal;font-variant-caps:normal;font-variant-numeric:normal;font-variant-alternates:normal;font-variant-east-asian:normal;font-feature-settings:normal;font-variation-settings:normal;text-indent:0;text-align:start;text-decoration:none;text-decoration-line:none;text-decoration-style:solid;text-decoration-color:#000000;letter-spacing:normal;word-spacing:normal;text-transform:none;writing-mode:lr-tb;direction:ltr;text-orientation:mixed;dominant-baseline:auto;baseline-shift:baseline;text-anchor:start;white-space:normal;shape-padding:0;shape-margin:0;inline-size:0;clip-rule:nonzero;display:inline;overflow:visible;visibility:visible;opacity:1;isolation:auto;mix-blend-mode:normal;color-interpolation:sRGB;color-interpolation-filters:linearRGB;solid-color:#000000;solid-opacity:1;vector-effect:none;fill:#ff0000;fill-opacity:1;fill-rule:nonzero;stroke:none;stroke-width:3.38672;stroke-linecap:round;stroke-linejoin:miter;stroke-miterlimit:4;stroke-dasharray:none;stroke-dashoffset:0;stroke-opacity:1;color-rendering:auto;image-rendering:auto;shape-rendering:auto;text-rendering:auto;enable-background:accumulate;stop-color:#000000;stop-opacity:1" />
      <path
         id="path1698"
         d="m 1.8339844,295.41211 a 0.2645835,0.2645835 0 0 0 -0.2382813,0.19727 0.2645835,0.2645835 0 0 0 0.1875,0.32421 l 2.0449219,0.54688 a 0.2645835,0.2645835 0 0 0 0.3242188,-0.1875 0.2645835,0.2645835 0 0 0 -0.1875,-0.32422 l -2.0449219,-0.54687 a 0.2645835,0.2645835 0 0 0 -0.085937,-0.01 z"
         style="color:#000000;font-style:normal;font-variant:normal;font-weight:normal;font-stretch:normal;font-size:medium;line-height:normal;font-family:sans-serif;font-variant-ligatures:normal;font-variant-position:normal;font-variant-caps:normal;font-variant-numeric:normal;font-variant-alternates:normal;font-variant-east-asian:normal;font-feature-settings:normal;font-variation-settings:normal;text-indent:0;text-align:start;text-decoration:none;text-decoration-line:none;text-decoration-style:solid;text-decoration-color:#000000;letter-spacing:normal;word-spacing:normal;text-transform:none;writing-mode:lr-tb;direction:ltr;text-orientation:mixed;dominant-baseline:auto;baseline-shift:baseline;text-anchor:start;white-space:normal;shape-padding:0;shape-margin:0;inline-size:0;clip-rule:nonzero;display:inline;overflow:visible;visibility:visible;opacity:1;isolation:auto;mix-blend-mode:normal;color-interpolation:sRGB;color-interpolation-filters:linearRGB;solid-color:#000000;solid-opacity:1;vector-effect:none;fill:#ffffff;fill-opacity:1;fill-rule:nonzero;stroke:none;stroke-width:6.77345;stroke-linecap:round;stroke-linejoin:round;stroke-miterlimit:4;stroke-dasharray:none;stroke-dashoffset:0;stroke-opacity:1;color-rendering:auto;image-rendering:auto;shape-rendering:auto;text-rendering:auto;enable-background:accumulate;stop-color:#000000;stop-opacity:1" />
      <path
         id="path1702"
         d="m 1.8691406,295.41211 a 0.2645835,0.2645835 0 0 0 -0.1484375,0.0352 0.2645835,0.2645835 0 0 0 -0.097656,0.36132 l 0.7480469,1.29688 a 0.2645835,0.2645835 0 0 0 0.3613281,0.0976 0.2645835,0.2645835 0 0 0 0.097656,-0.36132 L 2.0820312,295.54491 A 0.2645835,0.2645835 0 0 0 1.8691406,295.4121 Z"
         style="color:#000000;font-style:normal;font-variant:normal;font-weight:normal;font-stretch:normal;font-size:medium;line-height:normal;font-family:sans-serif;font-variant-ligatures:normal;font-variant-position:normal;font-variant-caps:normal;font-variant-numeric:normal;font-variant-alternates:normal;font-variant-east-asian:normal;font-feature-settings:normal;font-variation-settings:normal;text-indent:0;text-align:start;text-decoration:none;text-decoration-line:none;text-decoration-style:solid;text-decoration-color:#000000;letter-spacing:normal;word-spacing:normal;text-transform:none;writing-mode:lr-tb;direction:ltr;text-orientation:mixed;dominant-baseline:auto;baseline-shift:baseline;text-anchor:start;white-space:normal;shape-padding:0;shape-margin:0;inline-size:0;clip-rule:nonzero;display:inline;overflow:visible;visibility:visible;opacity:1;isolation:auto;mix-blend-mode:normal;color-interpolation:sRGB;color-interpolation-filters:linearRGB;solid-color:#000000;solid-opacity:1;vector-effect:none;fill:#ffffff;fill-opacity:1;fill-rule:nonzero;stroke:none;stroke-width:6.77345;stroke-linecap:round;stroke-linejoin:round;stroke-miterlimit:4;stroke-dasharray:none;stroke-dashoffset:0;stroke-opacity:1;color-rendering:auto;image-rendering:auto;shape-rendering:auto;text-rendering:auto;enable-background:accumulate;stop-color:#000000;stop-opacity:1" />
      <path
         id="path965"
         style="color:#000000;font-style:normal;font-variant:normal;font-weight:normal;font-stretch:normal;font-size:medium;line-height:normal;font-family:sans-serif;font-variant-ligatures:normal;font-variant-position:normal;font-variant-caps:normal;font-variant-numeric:normal;font-variant-alternates:normal;font-variant-east-asian:normal;font-feature-settings:normal;font-variation-settings:normal;text-indent:0;text-align:start;text-decoration:none;text-decoration-line:none;text-decoration-style:solid;text-decoration-color:#000000;letter-spacing:normal;word-spacing:normal;text-transform:none;writing-mode:lr-tb;direction:ltr;text-orientation:mixed;dominant-baseline:auto;baseline-shift:baseline;text-anchor:start;white-space:normal;shape-padding:0;shape-margin:0;inline-size:0;clip-rule:nonzero;display:inline;overflow:visible;visibility:visible;opacity:1;isolation:auto;mix-blend-mode:normal;color-interpolation:sRGB;color-interpolation-filters:linearRGB;solid-color:#000000;solid-opacity:1;vector-effect:none;fill:#ffffff;fill-opacity:1;fill-rule:nonzero;stroke:none;stroke-width:3.38672;stroke-linecap:round;stroke-linejoin:round;stroke-miterlimit:4;stroke-dasharray:none;stroke-dashoffset:0;stroke-opacity:1;color-rendering:auto;image-rendering:auto;shape-rendering:auto;text-rendering:auto;enable-background:accumulate;stop-color:#000000;stop-opacity:1"
         d="m 5.0145702,295.42877 c 0.027504,0.35072 3.175e-4,0.71164 -0.095986,1.07102 -0.4542462,1.69526 -2.1940279,2.69804 -3.8892956,2.2438 -0.358816,-0.0962 -0.6841069,-0.25279 -0.9736589,-0.45135 l -0.072893,0.27204 c 0.2941309,0.19047 0.6212882,0.34034 0.9778052,0.43587 1.8333866,0.49126 3.7233535,-0.59823 4.2146085,-2.43162 0.095677,-0.35707 0.1296324,-0.71624 0.1114594,-1.06687 z" />
    </g>
    <g
       style="font-style:normal;font-variant:normal;font-weight:normal;font-stretch:normal;font-size:0.446124px;line-height:1.25;font-family:Contemporary;-inkscape-font-specification:Contemporary;fill:#000000;fill-opacity:1;stroke:none;stroke-width:0.264583"
       id="text1710"
       aria-label="the24">
      <path
         id="path1730"
         style="font-style:normal;font-variant:normal;font-weight:normal;font-stretch:normal;font-family:Contemporary;-inkscape-font-specification:Contemporary;stroke-width:0.264583"
         d="m 2.588576,295.68643 q 0,0.005 0.00402,0.008 0.00446,0.003 0.00937,0.003 h 0.016507 q 0.00491,0 0.00848,-0.004 0.00357,-0.004 0.00357,-0.008 l -0.00134,-0.18157 h 0.046843 q 0.00491,0 0.00848,-0.004 0.00357,-0.004 0.00357,-0.008 v -0.0143 q 0,-0.005 -0.00357,-0.008 -0.00357,-0.004 -0.00848,-0.004 h -0.046843 v -0.0727 q 0,-0.005 -0.00357,-0.008 -0.00357,-0.004 -0.00848,-0.004 h -0.016507 q -0.00491,0 -0.00848,0.004 -0.00357,0.004 -0.00357,0.008 v 0.0727 h -0.042828 q -0.00491,0 -0.00848,0.004 -0.00357,0.004 -0.00357,0.008 v 0.0143 q 0,0.005 0.00357,0.008 0.00357,0.004 0.00848,0.004 h 0.042828 z" />
      <path
         id="path1732"
         style="font-style:normal;font-variant:normal;font-weight:normal;font-stretch:normal;font-family:Contemporary;-inkscape-font-specification:Contemporary;stroke-width:0.264583"
         d="m 2.9432444,295.68598 q 0,0.005 -0.00357,0.008 -0.00357,0.004 -0.00848,0.004 h -0.016507 q -0.00491,0 -0.00848,-0.004 -0.00357,-0.004 -0.00357,-0.008 v -0.11777 q 0,-0.0335 -0.016507,-0.0509 -0.016507,-0.0174 -0.045951,-0.0174 -0.028998,0 -0.045951,0.0174 -0.016506,0.0174 -0.016506,0.0509 v 0.11777 q 0,0.005 -0.00357,0.008 -0.00357,0.004 -0.00848,0.004 h -0.016507 q -0.00491,0 -0.00848,-0.004 -0.00357,-0.004 -0.00357,-0.008 v -0.29265 q 0,-0.005 0.00357,-0.008 0.00357,-0.004 0.00848,-0.004 h 0.016507 q 0.00491,0 0.00848,0.004 0.00357,0.004 0.00357,0.008 v 0.0986 q 0.00981,-0.0129 0.026767,-0.0214 0.017399,-0.009 0.042382,-0.009 0.028106,0 0.049966,0.012 0.02186,0.012 0.033905,0.0348 0.012492,0.0223 0.012492,0.0531 z" />
      <path
         id="path1734"
         style="font-style:normal;font-variant:normal;font-weight:normal;font-stretch:normal;font-family:Contemporary;-inkscape-font-specification:Contemporary;stroke-width:0.264583"
         d="m 3.0993871,295.46158 q 0.047735,0 0.075395,0.0303 0.02766,0.0303 0.02766,0.0825 v 0.012 q 0,0.005 -0.00357,0.008 -0.00357,0.004 -0.00848,0.004 H 3.0369297 v 0.003 q 8.923e-4,0.0294 0.017845,0.0464 0.017399,0.0165 0.044612,0.0165 0.022306,0 0.034352,-0.006 0.012491,-0.006 0.022306,-0.0165 0.00357,-0.004 0.00625,-0.005 0.00312,-0.001 0.00803,-0.001 h 0.013384 q 0.00535,0 0.00892,0.004 0.00357,0.004 0.00312,0.008 -0.00178,0.012 -0.013384,0.025 -0.011153,0.0125 -0.032567,0.0214 -0.020968,0.008 -0.050412,0.008 -0.028552,0 -0.050858,-0.0129 -0.022306,-0.0134 -0.03569,-0.0366 -0.012938,-0.0232 -0.015614,-0.0522 -8.923e-4,-0.0134 -8.923e-4,-0.0205 0,-0.007 8.923e-4,-0.0205 0.00268,-0.0277 0.015614,-0.05 0.013384,-0.0223 0.035244,-0.0352 0.022306,-0.0129 0.051304,-0.0129 z m 0.062903,0.0995 v -0.001 q 0,-0.0272 -0.017399,-0.0433 -0.016953,-0.0165 -0.045505,-0.0165 -0.025875,0 -0.044166,0.0165 -0.017845,0.0165 -0.018291,0.0433 v 0.001 z" />
      <path
         id="path1736"
         style="font-style:normal;font-variant:normal;font-weight:normal;font-stretch:normal;font-family:Contemporary;-inkscape-font-specification:Contemporary;stroke-width:0.264583"
         d="m 3.3951669,295.53385 q 0.014276,-0.0129 0.020522,-0.0254 0.00625,-0.0125 0.00625,-0.0317 0,-0.025 -0.014276,-0.0401 -0.014276,-0.0152 -0.043274,-0.0152 -0.028552,0 -0.042828,0.0152 -0.014276,0.0147 -0.020522,0.0401 -0.00134,0.005 -0.00446,0.008 -0.00312,0.003 -0.00714,0.003 h -0.020522 q -0.00402,0 -0.00714,-0.003 -0.00268,-0.003 -0.00268,-0.007 8.922e-4,-0.0228 0.013384,-0.0451 0.012938,-0.0223 0.036582,-0.0366 0.023645,-0.0143 0.055319,-0.0143 0.031675,0 0.053981,0.0129 0.022752,0.0125 0.034352,0.0343 0.011599,0.0214 0.011599,0.0482 0,0.0281 -0.00981,0.0482 -0.00937,0.0196 -0.032567,0.0402 l -0.099486,0.0928 h 0.1365139 q 0.00491,0 0.00848,0.004 0.00357,0.004 0.00357,0.008 v 0.0161 q 0,0.005 -0.00357,0.008 -0.00357,0.004 -0.00848,0.004 H 3.2666832 q -0.00491,0 -0.00848,-0.004 -0.00357,-0.004 -0.00357,-0.008 v -0.0161 q 0,-0.005 0.00178,-0.008 0.00223,-0.004 0.00803,-0.009 z" />
      <path
         id="path1738"
         style="font-style:normal;font-variant:normal;font-weight:normal;font-stretch:normal;font-family:Contemporary;-inkscape-font-specification:Contemporary;stroke-width:0.264583"
         d="m 3.6829164,295.69803 q -0.00491,0 -0.00848,-0.004 -0.00357,-0.004 -0.00357,-0.008 v -0.0616 H 3.5307881 q -0.00491,0 -0.00848,-0.004 -0.00357,-0.004 -0.00357,-0.008 v -0.0161 q 0,-0.003 0.00178,-0.007 0.00178,-0.004 0.00446,-0.008 l 0.1409751,-0.18469 q 0.00803,-0.0107 0.017399,-0.0107 h 0.017845 q 0.00491,0 0.00848,0.004 0.00357,0.004 0.00357,0.008 v 0.18648 h 0.038367 q 0.00491,0 0.00848,0.004 0.00357,0.004 0.00357,0.008 v 0.0161 q 0,0.005 -0.00357,0.008 -0.00357,0.004 -0.00848,0.004 h -0.038367 v 0.0616 q 0,0.005 -0.00357,0.008 -0.00357,0.004 -0.00848,0.004 z m -0.012045,-0.23957 -0.096809,0.12581 h 0.096809 z" />
    </g>
    <g
       style="font-style:normal;font-variant:normal;font-weight:normal;font-stretch:normal;font-size:0.210757px;line-height:1.25;font-family:Contemporary;-inkscape-font-specification:Contemporary;fill:#000000;fill-opacity:1;stroke:none;stroke-width:0.264583"
       id="text1710-3"
       aria-label="Clock">
      <path
         id="path1741"
         style="font-style:normal;font-variant:normal;font-weight:normal;font-stretch:normal;font-family:Contemporary;-inkscape-font-specification:Contemporary;stroke-width:0.264583"
         d="m 2.5532295,295.9668 q 6.323e-4,0.0179 0.010749,0.0287 0.010327,0.0105 0.028663,0.0105 0.018547,0 0.027398,-0.008 0.00885,-0.008 0.011802,-0.0207 4.215e-4,-0.002 0.0019,-0.003 0.00169,-0.001 0.00358,-0.001 h 0.00969 q 0.0019,0 0.00316,0.001 0.00148,0.001 0.00148,0.003 -4.215e-4,0.0103 -0.00674,0.0215 -0.00632,0.011 -0.0196,0.0186 -0.013067,0.008 -0.032667,0.008 -0.017704,0 -0.030981,-0.007 -0.013278,-0.007 -0.020654,-0.0202 -0.00717,-0.0131 -0.0078,-0.0295 -2.108e-4,-0.006 -2.108e-4,-0.0188 0,-0.0124 2.108e-4,-0.0188 6.323e-4,-0.0164 0.0078,-0.0293 0.00738,-0.0131 0.020654,-0.0204 0.013278,-0.007 0.030981,-0.007 0.0196,0 0.032667,0.008 0.013278,0.008 0.0196,0.0188 0.00632,0.011 0.00674,0.0213 0,0.002 -0.00148,0.003 -0.00126,0.001 -0.00316,0.001 h -0.00969 q -0.0019,0 -0.00358,-0.001 -0.00148,-0.001 -0.0019,-0.003 -0.00295,-0.0126 -0.011802,-0.0206 -0.00885,-0.008 -0.027398,-0.008 -0.018336,0 -0.028663,0.0107 -0.010116,0.0105 -0.010749,0.0285 -2.107e-4,0.006 -2.107e-4,0.0177 0,0.0114 2.107e-4,0.0177 z" />
      <path
         id="path1743"
         style="font-style:normal;font-variant:normal;font-weight:normal;font-stretch:normal;font-family:Contemporary;-inkscape-font-specification:Contemporary;stroke-width:0.264583"
         d="m 2.6961227,296.01717 q 0,0.002 -0.00169,0.004 -0.00169,0.002 -0.004,0.002 h -0.0078 q -0.00232,0 -0.004,-0.002 -0.00169,-0.002 -0.00169,-0.004 v -0.13826 q 0,-0.002 0.00169,-0.004 0.00169,-0.002 0.004,-0.002 h 0.0078 q 0.00232,0 0.004,0.002 0.00169,0.002 0.00169,0.004 z" />
      <path
         id="path1745"
         style="font-style:normal;font-variant:normal;font-weight:normal;font-stretch:normal;font-family:Contemporary;-inkscape-font-specification:Contemporary;stroke-width:0.264583"
         d="m 2.8225768,295.95816 q 4.215e-4,0.005 4.215e-4,0.0101 0,0.005 -4.215e-4,0.01 -0.0019,0.0215 -0.014964,0.0343 -0.012856,0.0127 -0.034986,0.0127 -0.02213,0 -0.035197,-0.0127 -0.012856,-0.0129 -0.014753,-0.0343 -2.107e-4,-0.002 -2.107e-4,-0.01 0,-0.008 2.107e-4,-0.0101 0.00169,-0.0215 0.014753,-0.0342 0.013067,-0.0129 0.035197,-0.0129 0.022129,0 0.035196,0.0129 0.013067,0.0127 0.014753,0.0342 z m -0.019179,0.001 q -0.00126,-0.0135 -0.00906,-0.0217 -0.00759,-0.008 -0.021708,-0.008 -0.014121,0 -0.021919,0.008 -0.00759,0.008 -0.00885,0.0217 -2.107e-4,0.003 -2.107e-4,0.009 0,0.006 2.107e-4,0.009 0.00126,0.0135 0.00885,0.0217 0.0078,0.008 0.021919,0.008 0.014121,0 0.021708,-0.008 0.0078,-0.008 0.00906,-0.0217 4.215e-4,-0.005 4.215e-4,-0.009 0,-0.004 -4.215e-4,-0.009 z" />
      <path
         id="path1747"
         style="font-style:normal;font-variant:normal;font-weight:normal;font-stretch:normal;font-family:Contemporary;-inkscape-font-specification:Contemporary;stroke-width:0.264583"
         d="m 2.8936018,296.00684 q 0.021076,0 0.028452,-0.0164 0.00148,-0.003 0.00295,-0.004 0.00148,-0.001 0.004,-0.001 h 0.00632 q 0.00232,0 0.004,0.002 0.00169,0.001 0.00169,0.004 0,0.007 -0.00569,0.0154 -0.00569,0.008 -0.016439,0.0139 -0.010749,0.006 -0.025291,0.006 -0.014964,0 -0.025923,-0.006 -0.010959,-0.006 -0.016861,-0.0173 -0.0059,-0.0112 -0.00653,-0.0249 -2.108e-4,-0.003 -2.108e-4,-0.01 0,-0.005 2.108e-4,-0.007 0.0019,-0.0215 0.014542,-0.035 0.012645,-0.0135 0.034775,-0.0135 0.014542,0 0.02508,0.006 0.010749,0.005 0.016228,0.0137 0.00569,0.008 0.00611,0.0152 2.108e-4,0.002 -0.00169,0.004 -0.00169,0.002 -0.004,0.002 h -0.00632 q -0.00253,0 -0.004,-0.001 -0.00148,-0.001 -0.00295,-0.004 -0.00738,-0.0164 -0.028452,-0.0164 -0.011592,0 -0.020233,0.008 -0.00864,0.008 -0.00991,0.0236 -2.108e-4,0.002 -2.108e-4,0.008 0,0.005 2.108e-4,0.007 0.00148,0.0158 0.00991,0.0236 0.00864,0.008 0.020233,0.008 z" />
      <path
         id="path1749"
         style="font-style:normal;font-variant:normal;font-weight:normal;font-stretch:normal;font-family:Contemporary;-inkscape-font-specification:Contemporary;stroke-width:0.264583"
         d="m 2.9854915,296.01717 q 0,0.002 -0.00169,0.004 -0.00169,0.002 -0.004,0.002 h -0.0078 q -0.00232,0 -0.004,-0.002 -0.00169,-0.002 -0.00169,-0.004 v -0.13826 q 0,-0.002 0.00169,-0.004 0.00169,-0.002 0.004,-0.002 h 0.0078 q 0.00232,0 0.004,0.002 0.00169,0.002 0.00169,0.004 v 0.0698 l 0.041098,-0.0318 q 0.00232,-0.002 0.004,-0.003 0.00169,-0.001 0.00422,-0.001 h 0.010538 q 0.00211,0 0.00358,0.001 0.00148,0.001 0.00148,0.004 0,0.002 -0.00232,0.004 l -0.050792,0.0396 0.056061,0.0516 q 0.00211,0.002 0.00211,0.004 0,0.002 -0.00148,0.004 -0.00148,0.001 -0.00358,0.001 h -0.00991 q -0.00443,0 -0.00864,-0.004 l -0.046367,-0.0428 z" />
    </g>
  </g>
</svg>
